<svg xmlns="http://www.w3.org/2000/svg" xmlns:xlink="http://www.w3.org/1999/xlink" width="250" viewBox="0 0 187.5 37.5" height="50" preserveAspectRatio="xMidYMid meet"><defs><g></g><clipPath id="id1"><path d="M 171 24 L 174 24 L 174 26.46875 L 171 26.46875 Z M 171 24 " clip-rule="nonzero"></path></clipPath><clipPath id="id2"><path d="M 161.335938 11 L 172 11 L 172 22 L 161.335938 22 Z M 161.335938 11 " clip-rule="nonzero"></path></clipPath><clipPath id="id3"><path d="M 161.335938 11 L 173 11 L 173 23 L 161.335938 23 Z M 161.335938 11 " clip-rule="nonzero"></path></clipPath><clipPath id="id4"><path d="M 172 11 L 182.855469 11 L 182.855469 22 L 172 22 Z M 172 11 " clip-rule="nonzero"></path></clipPath><clipPath id="id5"><path d="M 172 11 L 182.855469 11 L 182.855469 23 L 172 23 Z M 172 11 " clip-rule="nonzero"></path></clipPath><clipPath id="id6"><path d="M 161.335938 11 L 172 11 L 172 22 L 161.335938 22 Z M 161.335938 11 " clip-rule="nonzero"></path></clipPath></defs><g fill="#051d40" fill-opacity="1"><g transform="translate(4.732154, 21.892104)"><g><path d="M 5.15625 -10.3125 C 6.019531 -10.3125 6.742188 -10.164062 7.328125 -9.875 C 7.921875 -9.582031 8.359375 -9.175781 8.640625 -8.65625 C 8.929688 -8.132812 9.078125 -7.535156 9.078125 -6.859375 C 9.078125 -6.234375 8.941406 -5.648438 8.671875 -5.109375 C 8.398438 -4.566406 8.003906 -4.128906 7.484375 -3.796875 C 6.960938 -3.472656 6.347656 -3.3125 5.640625 -3.3125 L 3.4375 -3.3125 L 3.4375 0 L 0.984375 0 L 0.984375 -10.3125 Z M 5.140625 -5.515625 C 5.554688 -5.515625 5.90625 -5.628906 6.1875 -5.859375 C 6.476562 -6.097656 6.625 -6.414062 6.625 -6.8125 C 6.625 -7.238281 6.484375 -7.554688 6.203125 -7.765625 C 5.929688 -7.984375 5.578125 -8.09375 5.140625 -8.09375 L 3.4375 -8.09375 L 3.4375 -5.515625 Z M 5.140625 -5.515625 "></path></g></g></g><g fill="#051d40" fill-opacity="1"><g transform="translate(14.296588, 21.892104)"><g><path d="M 3.4375 -6 C 3.675781 -6.570312 4.046875 -7.007812 4.546875 -7.3125 C 5.054688 -7.625 5.664062 -7.804688 6.375 -7.859375 L 6.375 -5.15625 C 6.175781 -5.226562 5.953125 -5.265625 5.703125 -5.265625 C 5.421875 -5.265625 5.15625 -5.226562 4.90625 -5.15625 C 4.65625 -5.082031 4.414062 -4.945312 4.1875 -4.75 C 3.96875 -4.550781 3.785156 -4.296875 3.640625 -3.984375 C 3.503906 -3.679688 3.4375 -3.335938 3.4375 -2.953125 L 3.4375 0 L 0.984375 0 L 0.984375 -7.609375 L 3.4375 -7.609375 Z M 3.4375 -6 "></path></g></g></g><g fill="#051d40" fill-opacity="1"><g transform="translate(21.160823, 21.892104)"><g><path d="M 8.34375 -3.796875 C 8.34375 -3.597656 8.332031 -3.394531 8.3125 -3.1875 L 3.0625 -3.1875 C 3.164062 -2.8125 3.378906 -2.507812 3.703125 -2.28125 C 4.035156 -2.0625 4.453125 -1.953125 4.953125 -1.953125 C 5.273438 -1.953125 5.640625 -1.992188 6.046875 -2.078125 C 6.453125 -2.160156 6.828125 -2.273438 7.171875 -2.421875 L 7.859375 -0.46875 C 7.523438 -0.269531 7.097656 -0.101562 6.578125 0.03125 C 6.066406 0.175781 5.503906 0.25 4.890625 0.25 C 3.898438 0.25 3.078125 0.0703125 2.421875 -0.28125 C 1.765625 -0.644531 1.28125 -1.128906 0.96875 -1.734375 C 0.65625 -2.347656 0.5 -3.035156 0.5 -3.796875 C 0.5 -4.554688 0.648438 -5.242188 0.953125 -5.859375 C 1.265625 -6.472656 1.722656 -6.957031 2.328125 -7.3125 C 2.929688 -7.675781 3.671875 -7.859375 4.546875 -7.859375 C 5.347656 -7.859375 6.03125 -7.695312 6.59375 -7.375 C 7.164062 -7.050781 7.597656 -6.585938 7.890625 -5.984375 C 8.191406 -5.378906 8.34375 -4.648438 8.34375 -3.796875 Z M 5.765625 -4.65625 C 5.765625 -4.84375 5.710938 -5.03125 5.609375 -5.21875 C 5.503906 -5.414062 5.347656 -5.578125 5.140625 -5.703125 C 4.941406 -5.828125 4.695312 -5.890625 4.40625 -5.890625 C 4.164062 -5.890625 3.941406 -5.820312 3.734375 -5.6875 C 3.523438 -5.5625 3.359375 -5.398438 3.234375 -5.203125 C 3.117188 -5.015625 3.0625 -4.832031 3.0625 -4.65625 Z M 5.765625 -4.65625 "></path></g></g></g><g fill="#051d40" fill-opacity="1"><g transform="translate(29.993342, 21.892104)"><g><path d="M 4.453125 -4.984375 C 5.273438 -4.890625 5.929688 -4.738281 6.421875 -4.53125 C 6.921875 -4.332031 7.285156 -4.0625 7.515625 -3.71875 C 7.742188 -3.382812 7.859375 -2.960938 7.859375 -2.453125 C 7.859375 -1.921875 7.71875 -1.453125 7.4375 -1.046875 C 7.15625 -0.640625 6.722656 -0.320312 6.140625 -0.09375 C 5.554688 0.132812 4.828125 0.25 3.953125 0.25 C 3.242188 0.25 2.585938 0.15625 1.984375 -0.03125 C 1.378906 -0.21875 0.882812 -0.441406 0.5 -0.703125 L 1.140625 -2.703125 C 1.453125 -2.492188 1.828125 -2.316406 2.265625 -2.171875 C 2.710938 -2.023438 3.15625 -1.925781 3.59375 -1.875 C 3.84375 -1.851562 4.070312 -1.84375 4.28125 -1.84375 C 5.03125 -1.84375 5.40625 -1.96875 5.40625 -2.21875 C 5.40625 -2.332031 5.351562 -2.421875 5.25 -2.484375 C 5.15625 -2.546875 5.003906 -2.59375 4.796875 -2.625 C 4.597656 -2.664062 4.257812 -2.710938 3.78125 -2.765625 C 2.601562 -2.910156 1.800781 -3.21875 1.375 -3.6875 C 0.945312 -4.164062 0.734375 -4.691406 0.734375 -5.265625 C 0.734375 -6.054688 1.03125 -6.6875 1.625 -7.15625 C 2.21875 -7.625 3.125 -7.859375 4.34375 -7.859375 C 4.851562 -7.847656 5.367188 -7.789062 5.890625 -7.6875 C 6.421875 -7.582031 6.875 -7.425781 7.25 -7.21875 L 6.6875 -5.234375 C 6.351562 -5.398438 5.976562 -5.535156 5.5625 -5.640625 C 5.144531 -5.753906 4.75 -5.8125 4.375 -5.8125 C 3.988281 -5.8125 3.691406 -5.789062 3.484375 -5.75 C 3.285156 -5.707031 3.1875 -5.617188 3.1875 -5.484375 C 3.1875 -5.378906 3.242188 -5.296875 3.359375 -5.234375 C 3.472656 -5.171875 3.585938 -5.125 3.703125 -5.09375 C 3.828125 -5.070312 4.078125 -5.035156 4.453125 -4.984375 Z M 4.453125 -4.984375 "></path></g></g></g><g fill="#051d40" fill-opacity="1"><g transform="translate(38.331314, 21.892104)"><g><path d="M 7.609375 -0.6875 C 7.273438 -0.375 6.84375 -0.140625 6.3125 0.015625 C 5.789062 0.171875 5.257812 0.25 4.71875 0.25 C 3.851562 0.25 3.101562 0.0703125 2.46875 -0.28125 C 1.832031 -0.644531 1.34375 -1.132812 1 -1.75 C 0.664062 -2.363281 0.5 -3.046875 0.5 -3.796875 C 0.5 -4.546875 0.664062 -5.226562 1 -5.84375 C 1.34375 -6.46875 1.832031 -6.957031 2.46875 -7.3125 C 3.113281 -7.675781 3.863281 -7.859375 4.71875 -7.859375 C 5.257812 -7.859375 5.785156 -7.78125 6.296875 -7.625 C 6.816406 -7.46875 7.253906 -7.226562 7.609375 -6.90625 L 6.71875 -4.9375 C 6.46875 -5.15625 6.179688 -5.328125 5.859375 -5.453125 C 5.546875 -5.578125 5.21875 -5.640625 4.875 -5.640625 C 4.519531 -5.640625 4.195312 -5.554688 3.90625 -5.390625 C 3.613281 -5.222656 3.378906 -5 3.203125 -4.71875 C 3.035156 -4.4375 2.953125 -4.128906 2.953125 -3.796875 C 2.953125 -3.460938 3.035156 -3.15625 3.203125 -2.875 C 3.378906 -2.59375 3.613281 -2.367188 3.90625 -2.203125 C 4.195312 -2.035156 4.519531 -1.953125 4.875 -1.953125 C 5.207031 -1.953125 5.53125 -2.015625 5.84375 -2.140625 C 6.164062 -2.265625 6.457031 -2.4375 6.71875 -2.65625 Z M 7.609375 -0.6875 "></path></g></g></g><g fill="#051d40" fill-opacity="1"><g transform="translate(46.422011, 21.892104)"><g><path d="M 3.4375 -6 C 3.675781 -6.570312 4.046875 -7.007812 4.546875 -7.3125 C 5.054688 -7.625 5.664062 -7.804688 6.375 -7.859375 L 6.375 -5.15625 C 6.175781 -5.226562 5.953125 -5.265625 5.703125 -5.265625 C 5.421875 -5.265625 5.15625 -5.226562 4.90625 -5.15625 C 4.65625 -5.082031 4.414062 -4.945312 4.1875 -4.75 C 3.96875 -4.550781 3.785156 -4.296875 3.640625 -3.984375 C 3.503906 -3.679688 3.4375 -3.335938 3.4375 -2.953125 L 3.4375 0 L 0.984375 0 L 0.984375 -7.609375 L 3.4375 -7.609375 Z M 3.4375 -6 "></path></g></g></g><g fill="#051d40" fill-opacity="1"><g transform="translate(53.286246, 21.892104)"><g><path d="M 2.203125 -8.578125 C 1.941406 -8.578125 1.695312 -8.644531 1.46875 -8.78125 C 1.238281 -8.914062 1.054688 -9.09375 0.921875 -9.3125 C 0.796875 -9.539062 0.734375 -9.789062 0.734375 -10.0625 C 0.734375 -10.320312 0.796875 -10.566406 0.921875 -10.796875 C 1.054688 -11.023438 1.238281 -11.203125 1.46875 -11.328125 C 1.695312 -11.460938 1.941406 -11.53125 2.203125 -11.53125 C 2.460938 -11.53125 2.707031 -11.460938 2.9375 -11.328125 C 3.164062 -11.203125 3.34375 -11.023438 3.46875 -10.796875 C 3.601562 -10.566406 3.671875 -10.320312 3.671875 -10.0625 C 3.671875 -9.789062 3.601562 -9.539062 3.46875 -9.3125 C 3.34375 -9.09375 3.164062 -8.914062 2.9375 -8.78125 C 2.707031 -8.644531 2.460938 -8.578125 2.203125 -8.578125 Z M 3.4375 -7.609375 L 3.4375 0 L 0.984375 0 L 0.984375 -7.609375 Z M 3.4375 -7.609375 "></path></g></g></g><g fill="#051d40" fill-opacity="1"><g transform="translate(57.697558, 21.892104)"><g><path d="M 5.640625 -7.859375 C 6.304688 -7.859375 6.921875 -7.675781 7.484375 -7.3125 C 8.054688 -6.945312 8.503906 -6.453125 8.828125 -5.828125 C 9.148438 -5.210938 9.3125 -4.535156 9.3125 -3.796875 C 9.3125 -3.066406 9.144531 -2.390625 8.8125 -1.765625 C 8.488281 -1.148438 8.046875 -0.660156 7.484375 -0.296875 C 6.921875 0.0664062 6.304688 0.25 5.640625 0.25 C 5.210938 0.25 4.8125 0.171875 4.4375 0.015625 C 4.0625 -0.140625 3.726562 -0.359375 3.4375 -0.640625 L 3.4375 3.921875 L 0.984375 3.921875 L 0.984375 -7.609375 L 3.4375 -7.609375 L 3.4375 -6.96875 C 3.726562 -7.25 4.0625 -7.46875 4.4375 -7.625 C 4.8125 -7.78125 5.210938 -7.859375 5.640625 -7.859375 Z M 5.15625 -1.953125 C 5.46875 -1.953125 5.753906 -2.035156 6.015625 -2.203125 C 6.273438 -2.367188 6.476562 -2.59375 6.625 -2.875 C 6.78125 -3.15625 6.859375 -3.460938 6.859375 -3.796875 C 6.859375 -4.128906 6.78125 -4.4375 6.625 -4.71875 C 6.476562 -5 6.273438 -5.222656 6.015625 -5.390625 C 5.753906 -5.554688 5.46875 -5.640625 5.15625 -5.640625 C 4.84375 -5.640625 4.550781 -5.554688 4.28125 -5.390625 C 4.019531 -5.222656 3.8125 -5 3.65625 -4.71875 C 3.507812 -4.4375 3.4375 -4.128906 3.4375 -3.796875 C 3.4375 -3.460938 3.507812 -3.15625 3.65625 -2.875 C 3.8125 -2.59375 4.019531 -2.367188 4.28125 -2.203125 C 4.550781 -2.035156 4.84375 -1.953125 5.15625 -1.953125 Z M 5.15625 -1.953125 "></path></g></g></g><g fill="#051d40" fill-opacity="1"><g transform="translate(67.509265, 21.892104)"><g><path d="M 0.5 -7.609375 L 1.46875 -7.609375 L 1.46875 -10.3125 L 3.921875 -10.3125 L 3.921875 -7.609375 L 5.40625 -7.609375 L 5.40625 -5.40625 L 3.921875 -5.40625 L 3.921875 -3.1875 C 3.921875 -2.851562 3.941406 -2.59375 3.984375 -2.40625 C 4.023438 -2.226562 4.101562 -2.097656 4.21875 -2.015625 C 4.332031 -1.929688 4.503906 -1.890625 4.734375 -1.890625 C 4.929688 -1.890625 5.15625 -1.910156 5.40625 -1.953125 L 5.40625 0 C 5.144531 0.0820312 4.882812 0.144531 4.625 0.1875 C 4.363281 0.226562 4.046875 0.25 3.671875 0.25 C 2.929688 0.25 2.378906 0.0195312 2.015625 -0.4375 C 1.648438 -0.894531 1.46875 -1.472656 1.46875 -2.171875 L 1.46875 -5.40625 L 0.5 -5.40625 Z M 0.5 -7.609375 "></path></g></g></g><g fill="#051d40" fill-opacity="1"><g transform="translate(73.641586, 21.892104)"><g><path d="M 2.203125 -8.578125 C 1.941406 -8.578125 1.695312 -8.644531 1.46875 -8.78125 C 1.238281 -8.914062 1.054688 -9.09375 0.921875 -9.3125 C 0.796875 -9.539062 0.734375 -9.789062 0.734375 -10.0625 C 0.734375 -10.320312 0.796875 -10.566406 0.921875 -10.796875 C 1.054688 -11.023438 1.238281 -11.203125 1.46875 -11.328125 C 1.695312 -11.460938 1.941406 -11.53125 2.203125 -11.53125 C 2.460938 -11.53125 2.707031 -11.460938 2.9375 -11.328125 C 3.164062 -11.203125 3.34375 -11.023438 3.46875 -10.796875 C 3.601562 -10.566406 3.671875 -10.320312 3.671875 -10.0625 C 3.671875 -9.789062 3.601562 -9.539062 3.46875 -9.3125 C 3.34375 -9.09375 3.164062 -8.914062 2.9375 -8.78125 C 2.707031 -8.644531 2.460938 -8.578125 2.203125 -8.578125 Z M 3.4375 -7.609375 L 3.4375 0 L 0.984375 0 L 0.984375 -7.609375 Z M 3.4375 -7.609375 "></path></g></g></g><g fill="#051d40" fill-opacity="1"><g transform="translate(78.052898, 21.892104)"><g><path d="M 4.65625 -7.859375 C 5.457031 -7.859375 6.175781 -7.675781 6.8125 -7.3125 C 7.445312 -6.957031 7.941406 -6.46875 8.296875 -5.84375 C 8.648438 -5.226562 8.828125 -4.546875 8.828125 -3.796875 C 8.828125 -3.054688 8.648438 -2.375 8.296875 -1.75 C 7.953125 -1.132812 7.460938 -0.644531 6.828125 -0.28125 C 6.191406 0.0703125 5.46875 0.25 4.65625 0.25 C 3.820312 0.25 3.085938 0.0703125 2.453125 -0.28125 C 1.816406 -0.644531 1.332031 -1.132812 1 -1.75 C 0.664062 -2.363281 0.5 -3.046875 0.5 -3.796875 C 0.5 -4.546875 0.664062 -5.226562 1 -5.84375 C 1.332031 -6.46875 1.8125 -6.957031 2.4375 -7.3125 C 3.0625 -7.675781 3.800781 -7.859375 4.65625 -7.859375 Z M 4.65625 -1.953125 C 4.96875 -1.953125 5.253906 -2.035156 5.515625 -2.203125 C 5.785156 -2.367188 5.992188 -2.59375 6.140625 -2.875 C 6.296875 -3.15625 6.375 -3.460938 6.375 -3.796875 C 6.375 -4.128906 6.296875 -4.4375 6.140625 -4.71875 C 5.992188 -5 5.785156 -5.222656 5.515625 -5.390625 C 5.253906 -5.554688 4.96875 -5.640625 4.65625 -5.640625 C 4.34375 -5.640625 4.054688 -5.554688 3.796875 -5.390625 C 3.535156 -5.222656 3.328125 -5 3.171875 -4.71875 C 3.023438 -4.4375 2.953125 -4.128906 2.953125 -3.796875 C 2.953125 -3.460938 3.023438 -3.15625 3.171875 -2.875 C 3.328125 -2.59375 3.535156 -2.367188 3.796875 -2.203125 C 4.054688 -2.035156 4.34375 -1.953125 4.65625 -1.953125 Z M 4.65625 -1.953125 "></path></g></g></g><g fill="#051d40" fill-opacity="1"><g transform="translate(87.370068, 21.892104)"><g><path d="M 5.640625 -7.859375 C 6.171875 -7.859375 6.660156 -7.726562 7.109375 -7.46875 C 7.554688 -7.207031 7.910156 -6.816406 8.171875 -6.296875 C 8.441406 -5.773438 8.578125 -5.144531 8.578125 -4.40625 L 8.578125 0 L 6.125 0 L 6.125 -4.171875 C 6.125 -4.722656 6.003906 -5.101562 5.765625 -5.3125 C 5.523438 -5.53125 5.238281 -5.640625 4.90625 -5.640625 C 4.695312 -5.640625 4.476562 -5.585938 4.25 -5.484375 C 4.03125 -5.378906 3.835938 -5.195312 3.671875 -4.9375 C 3.515625 -4.6875 3.4375 -4.347656 3.4375 -3.921875 L 3.4375 0 L 0.984375 0 L 0.984375 -7.609375 L 3.4375 -7.609375 L 3.4375 -6.859375 C 3.695312 -7.171875 4.019531 -7.414062 4.40625 -7.59375 C 4.789062 -7.769531 5.203125 -7.859375 5.640625 -7.859375 Z M 5.640625 -7.859375 "></path></g></g></g><g fill="#051d40" fill-opacity="1"><g transform="translate(96.683627, 21.892104)"><g></g></g></g><g fill="#051d40" fill-opacity="1"><g transform="translate(98.463973, 21.892104)"><g></g></g></g><g fill="#00a8a8" fill-opacity="1"><g transform="translate(100.243413, 21.892104)"><g><path d="M 6.125 -1.953125 C 6.625 -1.953125 7.085938 -2.054688 7.515625 -2.265625 C 7.953125 -2.484375 8.316406 -2.78125 8.609375 -3.15625 L 9.5625 -1 C 9.125 -0.613281 8.59375 -0.304688 7.96875 -0.078125 C 7.351562 0.140625 6.738281 0.25 6.125 0.25 C 5.101562 0.25 4.160156 0.0078125 3.296875 -0.46875 C 2.429688 -0.957031 1.75 -1.613281 1.25 -2.4375 C 0.75 -3.269531 0.5 -4.175781 0.5 -5.15625 C 0.5 -6.125 0.75 -7.019531 1.25 -7.84375 C 1.75 -8.675781 2.429688 -9.332031 3.296875 -9.8125 C 4.160156 -10.300781 5.101562 -10.546875 6.125 -10.546875 C 6.738281 -10.546875 7.359375 -10.4375 7.984375 -10.21875 C 8.609375 -10.007812 9.132812 -9.707031 9.5625 -9.3125 L 8.609375 -7.140625 C 8.316406 -7.515625 7.957031 -7.804688 7.53125 -8.015625 C 7.101562 -8.234375 6.632812 -8.34375 6.125 -8.34375 C 5.550781 -8.34375 5.019531 -8.195312 4.53125 -7.90625 C 4.050781 -7.625 3.664062 -7.238281 3.375 -6.75 C 3.09375 -6.257812 2.953125 -5.726562 2.953125 -5.15625 C 2.953125 -4.570312 3.09375 -4.035156 3.375 -3.546875 C 3.664062 -3.054688 4.050781 -2.664062 4.53125 -2.375 C 5.019531 -2.09375 5.550781 -1.953125 6.125 -1.953125 Z M 6.125 -1.953125 "></path></g></g></g><g fill="#00a8a8" fill-opacity="1"><g transform="translate(110.302394, 21.892104)"><g><path d="M 4.65625 -7.859375 C 5.457031 -7.859375 6.175781 -7.675781 6.8125 -7.3125 C 7.445312 -6.957031 7.941406 -6.46875 8.296875 -5.84375 C 8.648438 -5.226562 8.828125 -4.546875 8.828125 -3.796875 C 8.828125 -3.054688 8.648438 -2.375 8.296875 -1.75 C 7.953125 -1.132812 7.460938 -0.644531 6.828125 -0.28125 C 6.191406 0.0703125 5.46875 0.25 4.65625 0.25 C 3.820312 0.25 3.085938 0.0703125 2.453125 -0.28125 C 1.816406 -0.644531 1.332031 -1.132812 1 -1.75 C 0.664062 -2.363281 0.5 -3.046875 0.5 -3.796875 C 0.5 -4.546875 0.664062 -5.226562 1 -5.84375 C 1.332031 -6.46875 1.8125 -6.957031 2.4375 -7.3125 C 3.0625 -7.675781 3.800781 -7.859375 4.65625 -7.859375 Z M 4.65625 -1.953125 C 4.96875 -1.953125 5.253906 -2.035156 5.515625 -2.203125 C 5.785156 -2.367188 5.992188 -2.59375 6.140625 -2.875 C 6.296875 -3.15625 6.375 -3.460938 6.375 -3.796875 C 6.375 -4.128906 6.296875 -4.4375 6.140625 -4.71875 C 5.992188 -5 5.785156 -5.222656 5.515625 -5.390625 C 5.253906 -5.554688 4.96875 -5.640625 4.65625 -5.640625 C 4.34375 -5.640625 4.054688 -5.554688 3.796875 -5.390625 C 3.535156 -5.222656 3.328125 -5 3.171875 -4.71875 C 3.023438 -4.4375 2.953125 -4.128906 2.953125 -3.796875 C 2.953125 -3.460938 3.023438 -3.15625 3.171875 -2.875 C 3.328125 -2.59375 3.535156 -2.367188 3.796875 -2.203125 C 4.054688 -2.035156 4.34375 -1.953125 4.65625 -1.953125 Z M 4.65625 -1.953125 "></path></g></g></g><g fill="#00a8a8" fill-opacity="1"><g transform="translate(119.619565, 21.892104)"><g><path d="M 3.671875 0.25 C 3.140625 0.25 2.648438 0.117188 2.203125 -0.140625 C 1.753906 -0.398438 1.394531 -0.785156 1.125 -1.296875 C 0.863281 -1.816406 0.734375 -2.445312 0.734375 -3.1875 L 0.734375 -7.609375 L 3.1875 -7.609375 L 3.1875 -3.4375 C 3.1875 -2.875 3.304688 -2.484375 3.546875 -2.265625 C 3.785156 -2.054688 4.070312 -1.953125 4.40625 -1.953125 C 4.613281 -1.953125 4.832031 -2.003906 5.0625 -2.109375 C 5.289062 -2.222656 5.484375 -2.40625 5.640625 -2.65625 C 5.804688 -2.914062 5.890625 -3.253906 5.890625 -3.671875 L 5.890625 -7.609375 L 8.34375 -7.609375 L 8.34375 0 L 5.890625 0 L 5.890625 -0.734375 C 5.628906 -0.421875 5.304688 -0.175781 4.921875 0 C 4.535156 0.164062 4.117188 0.25 3.671875 0.25 Z M 3.671875 0.25 "></path></g></g></g><g fill="#00a8a8" fill-opacity="1"><g transform="translate(128.936735, 21.892104)"><g><path d="M 5.640625 -7.859375 C 6.171875 -7.859375 6.660156 -7.726562 7.109375 -7.46875 C 7.554688 -7.207031 7.910156 -6.816406 8.171875 -6.296875 C 8.441406 -5.773438 8.578125 -5.144531 8.578125 -4.40625 L 8.578125 0 L 6.125 0 L 6.125 -4.171875 C 6.125 -4.722656 6.003906 -5.101562 5.765625 -5.3125 C 5.523438 -5.53125 5.238281 -5.640625 4.90625 -5.640625 C 4.695312 -5.640625 4.476562 -5.585938 4.25 -5.484375 C 4.03125 -5.378906 3.835938 -5.195312 3.671875 -4.9375 C 3.515625 -4.6875 3.4375 -4.347656 3.4375 -3.921875 L 3.4375 0 L 0.984375 0 L 0.984375 -7.609375 L 3.4375 -7.609375 L 3.4375 -6.859375 C 3.695312 -7.171875 4.019531 -7.414062 4.40625 -7.59375 C 4.789062 -7.769531 5.203125 -7.859375 5.640625 -7.859375 Z M 5.640625 -7.859375 "></path></g></g></g><g fill="#00a8a8" fill-opacity="1"><g transform="translate(138.253906, 21.892104)"><g><path d="M 0.5 -7.609375 L 1.46875 -7.609375 L 1.46875 -10.3125 L 3.921875 -10.3125 L 3.921875 -7.609375 L 5.40625 -7.609375 L 5.40625 -5.40625 L 3.921875 -5.40625 L 3.921875 -3.1875 C 3.921875 -2.851562 3.941406 -2.59375 3.984375 -2.40625 C 4.023438 -2.226562 4.101562 -2.097656 4.21875 -2.015625 C 4.332031 -1.929688 4.503906 -1.890625 4.734375 -1.890625 C 4.929688 -1.890625 5.15625 -1.910156 5.40625 -1.953125 L 5.40625 0 C 5.144531 0.0820312 4.882812 0.144531 4.625 0.1875 C 4.363281 0.226562 4.046875 0.25 3.671875 0.25 C 2.929688 0.25 2.378906 0.0195312 2.015625 -0.4375 C 1.648438 -0.894531 1.46875 -1.472656 1.46875 -2.171875 L 1.46875 -5.40625 L 0.5 -5.40625 Z M 0.5 -7.609375 "></path></g></g></g><g fill="#00a8a8" fill-opacity="1"><g transform="translate(144.386227, 21.892104)"><g><path d="M 8.34375 -3.796875 C 8.34375 -3.597656 8.332031 -3.394531 8.3125 -3.1875 L 3.0625 -3.1875 C 3.164062 -2.8125 3.378906 -2.507812 3.703125 -2.28125 C 4.035156 -2.0625 4.453125 -1.953125 4.953125 -1.953125 C 5.273438 -1.953125 5.640625 -1.992188 6.046875 -2.078125 C 6.453125 -2.160156 6.828125 -2.273438 7.171875 -2.421875 L 7.859375 -0.46875 C 7.523438 -0.269531 7.097656 -0.101562 6.578125 0.03125 C 6.066406 0.175781 5.503906 0.25 4.890625 0.25 C 3.898438 0.25 3.078125 0.0703125 2.421875 -0.28125 C 1.765625 -0.644531 1.28125 -1.128906 0.96875 -1.734375 C 0.65625 -2.347656 0.5 -3.035156 0.5 -3.796875 C 0.5 -4.554688 0.648438 -5.242188 0.953125 -5.859375 C 1.265625 -6.472656 1.722656 -6.957031 2.328125 -7.3125 C 2.929688 -7.675781 3.671875 -7.859375 4.546875 -7.859375 C 5.347656 -7.859375 6.03125 -7.695312 6.59375 -7.375 C 7.164062 -7.050781 7.597656 -6.585938 7.890625 -5.984375 C 8.191406 -5.378906 8.34375 -4.648438 8.34375 -3.796875 Z M 5.765625 -4.65625 C 5.765625 -4.84375 5.710938 -5.03125 5.609375 -5.21875 C 5.503906 -5.414062 5.347656 -5.578125 5.140625 -5.703125 C 4.941406 -5.828125 4.695312 -5.890625 4.40625 -5.890625 C 4.164062 -5.890625 3.941406 -5.820312 3.734375 -5.6875 C 3.523438 -5.5625 3.359375 -5.398438 3.234375 -5.203125 C 3.117188 -5.015625 3.0625 -4.832031 3.0625 -4.65625 Z M 5.765625 -4.65625 "></path></g></g></g><g fill="#00a8a8" fill-opacity="1"><g transform="translate(153.218747, 21.892104)"><g><path d="M 3.4375 -6 C 3.675781 -6.570312 4.046875 -7.007812 4.546875 -7.3125 C 5.054688 -7.625 5.664062 -7.804688 6.375 -7.859375 L 6.375 -5.15625 C 6.175781 -5.226562 5.953125 -5.265625 5.703125 -5.265625 C 5.421875 -5.265625 5.15625 -5.226562 4.90625 -5.15625 C 4.65625 -5.082031 4.414062 -4.945312 4.1875 -4.75 C 3.96875 -4.550781 3.785156 -4.296875 3.640625 -3.984375 C 3.503906 -3.679688 3.4375 -3.335938 3.4375 -2.953125 L 3.4375 0 L 0.984375 0 L 0.984375 -7.609375 L 3.4375 -7.609375 Z M 3.4375 -6 "></path></g></g></g><path fill="#ff5757" d="M 171.988281 21.359375 C 171.960938 22.015625 171.417969 22.53125 170.761719 22.496094 C 170.113281 22.46875 169.609375 21.910156 169.636719 21.25 C 169.664062 20.609375 170.179688 20.109375 170.8125 20.109375 C 170.828125 20.109375 170.847656 20.109375 170.863281 20.109375 C 171.515625 20.140625 172.019531 20.699219 171.988281 21.359375 Z M 171.988281 21.359375 " fill-opacity="1" fill-rule="nonzero"></path><g clip-path="url(#id1)"><path fill="#ff5757" d="M 173.683594 25.316406 C 173.65625 25.957031 173.140625 26.460938 172.507812 26.460938 C 172.492188 26.460938 172.472656 26.457031 172.457031 26.457031 C 171.808594 26.429688 171.304688 25.871094 171.332031 25.210938 C 171.359375 24.570312 171.875 24.070312 172.507812 24.070312 C 172.523438 24.070312 172.542969 24.070312 172.558594 24.070312 C 172.875 24.085938 173.164062 24.222656 173.375 24.457031 C 173.589844 24.695312 173.699219 25 173.683594 25.316406 Z M 173.683594 25.316406 " fill-opacity="1" fill-rule="nonzero"></path></g><path fill="#ff5757" d="M 174.789062 21.941406 C 174.773438 22.320312 174.460938 22.613281 174.085938 22.597656 C 173.902344 22.589844 173.738281 22.511719 173.617188 22.375 C 173.492188 22.242188 173.429688 22.066406 173.4375 21.882812 C 173.457031 21.515625 173.75 21.226562 174.113281 21.226562 L 174.144531 21.226562 C 174.515625 21.246094 174.804688 21.566406 174.789062 21.941406 Z M 174.789062 21.941406 " fill-opacity="1" fill-rule="nonzero"></path><g clip-path="url(#id2)"><path fill="#004c3f" d="M 168.871094 13.144531 C 168.175781 12.160156 167.113281 11.601562 166.003906 11.519531 L 166.253906 11.875 L 167.839844 14.125 C 167.945312 14.273438 167.910156 14.476562 167.765625 14.578125 C 167.710938 14.621094 167.644531 14.640625 167.582031 14.640625 C 167.480469 14.640625 167.382812 14.59375 167.320312 14.503906 L 165.445312 11.84375 L 165.234375 11.542969 C 164.617188 11.621094 164.011719 11.851562 163.472656 12.246094 C 161.734375 13.507812 161.335938 15.960938 162.582031 17.722656 L 165.605469 21.992188 L 171.894531 17.417969 Z M 167.988281 15.066406 C 168.203125 14.910156 168.5 14.957031 168.65625 15.175781 C 168.808594 15.394531 168.761719 15.695312 168.546875 15.851562 C 168.332031 16.007812 168.03125 15.957031 167.878906 15.742188 C 167.726562 15.523438 167.773438 15.222656 167.988281 15.066406 Z M 167.988281 15.066406 " fill-opacity="1" fill-rule="nonzero"></path></g><g clip-path="url(#id3)"><path fill="#ff5757" d="M 172.15625 17.226562 L 169.132812 12.957031 C 168.355469 11.859375 167.101562 11.199219 165.769531 11.1875 L 166.003906 11.519531 L 166.253906 11.875 C 167.195312 12.019531 168.050781 12.542969 168.613281 13.335938 L 171.449219 17.34375 L 165.679688 21.539062 L 162.84375 17.53125 C 162.289062 16.75 162.070312 15.796875 162.226562 14.851562 C 162.378906 13.902344 162.886719 13.070312 163.660156 12.511719 C 164.191406 12.125 164.804688 11.898438 165.445312 11.84375 L 165.234375 11.542969 L 165.027344 11.25 C 165.027344 11.246094 165.027344 11.246094 165.023438 11.246094 C 164.402344 11.351562 163.808594 11.601562 163.285156 11.980469 C 162.375 12.644531 161.773438 13.625 161.59375 14.746094 C 161.410156 15.863281 161.671875 16.988281 162.324219 17.910156 L 165.34375 22.183594 C 165.40625 22.269531 165.503906 22.316406 165.605469 22.316406 C 165.667969 22.316406 165.734375 22.296875 165.792969 22.257812 L 172.082031 17.679688 C 172.226562 17.578125 172.257812 17.375 172.15625 17.226562 Z M 172.15625 17.226562 " fill-opacity="1" fill-rule="nonzero"></path></g><g clip-path="url(#id4)"><path fill="#004c3f" d="M 180.480469 12.019531 C 178.660156 10.878906 176.277344 11.453125 175.152344 13.296875 L 172.550781 17.566406 L 179.136719 21.691406 L 181.738281 17.421875 C 182.859375 15.578125 182.296875 13.160156 180.480469 12.019531 Z M 181.464844 17.25 L 179.03125 21.246094 L 172.988281 17.460938 L 175.425781 13.464844 C 176.074219 12.398438 177.207031 11.757812 178.449219 11.757812 C 179.105469 11.757812 179.75 11.945312 180.3125 12.296875 C 181.117188 12.800781 181.683594 13.59375 181.898438 14.53125 C 182.117188 15.464844 181.964844 16.433594 181.464844 17.25 Z M 181.464844 17.25 " fill-opacity="1" fill-rule="nonzero"></path></g><g clip-path="url(#id5)"><path fill="#ff5757" d="M 182.523438 14.378906 C 182.265625 13.277344 181.597656 12.339844 180.648438 11.742188 C 179.984375 11.328125 179.222656 11.109375 178.449219 11.109375 C 176.984375 11.109375 175.648438 11.863281 174.878906 13.125 L 172.277344 17.398438 C 172.183594 17.550781 172.230469 17.75 172.378906 17.84375 L 178.96875 21.96875 C 179.015625 22 179.074219 22.019531 179.136719 22.019531 C 179.160156 22.019531 179.183594 22.015625 179.210938 22.007812 C 179.292969 21.988281 179.363281 21.9375 179.40625 21.863281 L 182.011719 17.589844 C 182.597656 16.625 182.78125 15.484375 182.523438 14.378906 Z M 172.988281 17.460938 L 175.425781 13.464844 C 176.074219 12.398438 177.207031 11.757812 178.449219 11.757812 C 179.105469 11.757812 179.75 11.945312 180.3125 12.296875 C 181.117188 12.800781 181.683594 13.59375 181.898438 14.53125 C 182.117188 15.464844 181.964844 16.433594 181.464844 17.25 L 179.03125 21.246094 Z M 172.988281 17.460938 " fill-opacity="1" fill-rule="nonzero"></path></g><g clip-path="url(#id6)"><path fill="#ff5757" d="M 168.871094 13.144531 C 168.175781 12.160156 167.113281 11.601562 166.003906 11.519531 L 166.253906 11.875 L 167.839844 14.125 C 167.945312 14.273438 167.910156 14.476562 167.765625 14.578125 C 167.710938 14.621094 167.644531 14.640625 167.582031 14.640625 C 167.480469 14.640625 167.382812 14.59375 167.320312 14.503906 L 165.445312 11.84375 L 165.234375 11.542969 C 164.617188 11.621094 164.011719 11.851562 163.472656 12.246094 C 161.734375 13.507812 161.335938 15.960938 162.582031 17.722656 L 165.605469 21.992188 L 171.894531 17.417969 Z M 167.988281 15.066406 C 168.203125 14.910156 168.5 14.957031 168.65625 15.175781 C 168.808594 15.394531 168.761719 15.695312 168.546875 15.851562 C 168.332031 16.007812 168.03125 15.957031 167.878906 15.742188 C 167.726562 15.523438 167.773438 15.222656 167.988281 15.066406 Z M 167.988281 15.066406 " fill-opacity="1" fill-rule="nonzero"></path></g></svg>